<?xml version="1.0" standalone="no"?>
<!DOCTYPE svg PUBLIC "-//W3C//DTD SVG 20010904//EN"
 "http://www.w3.org/TR/2001/REC-SVG-20010904/DTD/svg10.dtd">
<svg version="1.0" xmlns="http://www.w3.org/2000/svg"
 width="512.000000pt" height="512.000000pt" viewBox="0 0 512.000000 512.000000"
 preserveAspectRatio="xMidYMid meet">
<metadata>
Created by potrace 1.11, written by Peter Selinger 2001-2013
</metadata>
<g transform="translate(0.000000,512.000000) scale(0.100000,-0.100000)"
fill="#000000" stroke="none">
<path d="M2340 5050 c-331 -32 -587 -105 -890 -252 -241 -118 -452 -270 -655
-473 -124 -123 -288 -323 -325 -395 -7 -14 -16 -27 -20 -30 -5 -4 -30 -47
-102 -175 -9 -16 -22 -41 -28 -55 -6 -14 -22 -48 -35 -75 -54 -115 -135 -346
-149 -427 -2 -15 -7 -32 -10 -37 -8 -12 -45 -239 -54 -326 -9 -91 -9 -399 1
-494 16 -162 56 -356 108 -517 221 -692 748 -1263 1424 -1544 184 -76 440
-145 615 -166 30 -3 59 -8 63 -11 14 -9 430 -11 512 -3 417 41 808 180 1148
408 295 198 551 459 732 747 134 213 262 512 310 721 59 257 72 371 73 614 0
209 -5 264 -49 490 -68 358 -234 728 -461 1025 -111 147 -320 357 -460 462
-199 150 -398 264 -608 346 -114 45 -323 110 -390 121 -19 3 -58 10 -87 15
-55 11 -94 16 -208 30 -86 10 -354 10 -455 1z"/>
</g>
</svg>
